<svg id="Layer_1" data-name="Layer 1" xmlns="http://www.w3.org/2000/svg" viewBox="0 0 427.37 469.55"><defs><style>.cls-1{fill:#da6257;}.cls-2{fill:#fff;}</style></defs><path class="cls-1" d="M467.7,263.4,331.39,184.71a77.34,77.34,0,0,0-77.38,0L117.71,263.4a77.38,77.38,0,0,0-38.69,67V487.81a77.36,77.36,0,0,0,38.69,67L254,633.52a77.39,77.39,0,0,0,77.38,0l136.31-78.7a77.38,77.38,0,0,0,38.69-67V330.42A77.4,77.4,0,0,0,467.7,263.4Z" transform="translate(-79.02 -174.34)"/><path class="cls-2" d="M128.91,359V324s1.19-11.11,14.66-19.15,112.25-66.06,112.25-66.06,15.76-10.41,22.52,0,4.22,42.5,4.22,45-.57,4.79-12.1,10.42-32.93,15.19-32.93,15.19-7.32,3.38-7,14.36-.28,166.32-.28,166.32-1.69,11.82,12.1,18,28.9,14.09,28.9,14.09,10.35,3.24,10.24,14.74-.21,33.15-.21,33.15S280,591.67,259.81,580,140.12,510,140.12,510s-13.14-8.66-12.81-32.62V462.92s-.49-10.15,7.5-5.83,33.94,17.14,33.94,17.14,8.65,5,8.32-3.83-.17-126.29-.17-126.29,1.17-6.65-8.65-1.66-31.52,16.3-31.52,16.3S128.91,363.36,128.91,359Z" transform="translate(-79.02 -174.34)"/><path class="cls-2" d="M366.4,261,436,300.12s21.81,8.23,21.67,35.38.14,151.36.14,151.36a28.11,28.11,0,0,1-14,24.69c-15.16,9.25-116.11,66.58-116.11,66.58s-25.13,12.85-24.84-9.39,0-172.72,0-172.72-.72-10.11,8.24-10.11h38.56s5.2,0,5.2,7.22v99.21s.14,11.13,13.14,4.48,29.61-15.45,29.61-15.45,9.67-4.48,9.67-14.59V348.5s.29-10.54-10.83-15.45-33.65-15.89-33.65-15.89-8.52-3.61-8.52-17.76V262.28a8.15,8.15,0,0,1,.42-3.18,6.8,6.8,0,0,1,1-1.56c1.18-1.32,4-.13,6.4,1.12C367.54,261.56,366.4,261,366.4,261Z" transform="translate(-79.02 -174.34)"/></svg>